<?xml version="1.0" standalone="no"?>
<!DOCTYPE svg PUBLIC "-//W3C//DTD SVG 20010904//EN"
 "http://www.w3.org/TR/2001/REC-SVG-20010904/DTD/svg10.dtd">
<svg version="1.0" xmlns="http://www.w3.org/2000/svg"
 width="1000.000000pt" height="1000.000000pt" viewBox="0 0 1000.000000 1000.000000"
 preserveAspectRatio="xMidYMid meet">
<metadata>
Created by potrace 1.14, written by Peter Selinger 2001-2017
</metadata>
<g transform="translate(0.000000,1000.000000) scale(0.100000,-0.100000)"
fill="#000000" stroke="none">
<path d="M2974 8544 c11 -8 28 -14 38 -14 10 0 18 -4 18 -10 0 -5 6 -10 14
-10 7 0 35 -10 62 -22 27 -12 54 -23 59 -24 6 -1 33 -12 60 -25 28 -13 55 -24
60 -24 6 -1 25 -9 43 -18 17 -10 32 -15 32 -12 0 4 13 -3 29 -14 16 -12 38
-21 49 -21 12 0 24 -5 27 -10 4 -6 11 -8 16 -5 5 4 9 1 9 -5 0 -6 5 -8 10 -5
6 3 10 3 10 -2 0 -4 17 -13 38 -20 20 -6 64 -24 97 -39 33 -15 65 -28 70 -30
6 -1 24 -8 40 -15 17 -7 32 -13 35 -14 9 -3 64 -26 100 -42 64 -28 74 -32 165
-68 50 -20 107 -45 128 -56 20 -10 37 -16 37 -14 0 3 15 -2 33 -12 17 -9 34
-18 37 -18 5 -2 54 -21 80 -32 8 -3 17 -7 20 -8 3 -1 23 -9 45 -19 22 -10 45
-19 50 -20 6 -1 20 -7 32 -14 12 -7 29 -12 37 -12 9 0 16 -4 16 -10 0 -5 7
-10 15 -10 8 0 44 -13 80 -30 36 -16 70 -30 75 -30 6 0 18 -4 28 -9 46 -25
151 -70 174 -76 15 -4 32 -13 39 -21 6 -8 16 -14 21 -14 5 0 29 -13 53 -30 24
-16 49 -30 55 -30 6 0 8 -4 5 -10 -3 -5 1 -10 9 -10 8 0 20 -8 25 -17 6 -10
11 -14 11 -9 0 14 179 -174 185 -195 4 -10 11 -19 16 -19 5 0 9 -7 9 -15 0 -8
3 -15 8 -15 4 0 12 -10 18 -23 6 -12 21 -40 32 -62 36 -66 69 -148 77 -185 4
-19 10 -39 13 -45 4 -5 7 -17 9 -25 1 -8 5 -31 9 -50 4 -19 8 -49 9 -66 1 -17
4 -35 6 -40 12 -26 -3 -251 -21 -314 -5 -16 -7 -30 -4 -30 3 0 -1 -15 -32 -95
-4 -11 -8 -25 -10 -32 -4 -23 -58 -128 -69 -135 -5 -4 -6 -8 -2 -8 10 0 -81
-133 -128 -185 -19 -22 -54 -62 -78 -88 -23 -26 -61 -68 -83 -92 -23 -25 -40
-45 -38 -45 2 0 -9 -13 -24 -28 -60 -64 -102 -114 -102 -124 0 -6 -3 -8 -6 -5
-4 4 -19 -10 -35 -29 -16 -20 -49 -59 -75 -87 -42 -48 -101 -114 -179 -202
-16 -19 -52 -60 -80 -91 -27 -31 -60 -67 -72 -80 -13 -13 -23 -26 -23 -29 0
-3 -21 -28 -47 -55 -27 -26 -59 -61 -72 -77 -40 -47 -144 -164 -180 -202 -19
-20 -34 -37 -33 -38 4 -8 -234 -254 -299 -309 -13 -11 -45 -35 -71 -54 -27
-18 -48 -37 -48 -42 0 -5 -4 -7 -9 -3 -5 3 -21 -5 -34 -17 -14 -13 -47 -34
-74 -48 -26 -14 -50 -28 -53 -31 -12 -13 -114 -58 -121 -53 -5 3 -9 1 -9 -4 0
-7 -100 -52 -130 -58 -3 0 -13 -4 -22 -7 -10 -4 -26 -10 -35 -14 -10 -3 -22
-5 -27 -4 -4 1 -13 -2 -20 -7 -6 -4 -20 -8 -31 -8 -11 1 -23 -2 -26 -6 -3 -5
-17 -9 -32 -10 -15 -1 -27 -5 -27 -8 0 -3 -8 -6 -17 -7 -58 -4 -139 -16 -143
-22 -3 -3 -25 -7 -50 -8 -47 -2 -135 -11 -135 -13 0 -2 -46 -8 -100 -14 -22
-3 -40 -5 -40 -6 0 -1 -18 -4 -40 -6 -82 -10 -101 -12 -125 -18 -14 -3 -47 -8
-75 -11 -27 -3 -66 -7 -85 -10 -43 -7 -117 -16 -147 -18 -13 0 -23 -3 -23 -6
0 -4 -17 -7 -38 -7 -20 -1 -62 -5 -92 -9 -30 -5 -61 -8 -67 -8 -7 0 -13 -3
-13 -6 0 -3 -19 -7 -43 -8 -51 -2 -116 -9 -178 -21 -25 -5 -53 -8 -62 -6 -9 1
-17 -1 -17 -4 0 -4 -12 -7 -27 -8 -31 0 -125 -11 -162 -19 -13 -2 -47 -7 -75
-10 -28 -3 -62 -8 -76 -10 -14 -2 -43 -6 -65 -9 -22 -3 -58 -8 -80 -12 -22 -3
-56 -7 -75 -9 -19 -2 -48 -6 -65 -9 -16 -3 -45 -6 -62 -8 -18 -1 -33 -5 -33
-8 0 -3 -17 -6 -38 -7 -77 -3 -158 -11 -174 -18 -9 -4 -34 -8 -55 -10 -21 -1
-38 -4 -38 -5 0 -1 -18 -4 -40 -6 -22 -2 -53 -5 -70 -8 -16 -2 -56 -7 -88 -11
-32 -3 -68 -9 -80 -11 -12 -3 -39 -7 -61 -8 -21 -2 -42 -10 -47 -17 -8 -13
-13 -5 -10 15 1 5 -5 4 -13 -4 -18 -14 -22 -25 -6 -15 5 3 10 3 10 -2 0 -4
150 -8 333 -8 182 0 341 -3 352 -6 11 -3 29 -3 40 1 11 4 29 4 41 0 11 -5 28
-4 37 1 11 7 17 6 17 0 0 -11 19 -9 39 3 8 6 12 5 8 0 -3 -5 12 -9 33 -9 23 0
36 4 32 10 -4 7 -1 7 9 0 8 -6 84 -10 181 -10 93 0 168 -2 168 -5 0 -3 44 -5
98 -4 55 0 103 -4 111 -10 11 -8 13 -8 8 1 -6 9 7 11 48 8 31 -1 59 -5 62 -8
3 -3 16 -2 29 3 14 6 26 6 29 0 4 -6 13 -7 24 -1 10 6 23 6 31 1 8 -5 21 -5
31 0 9 5 19 7 22 4 3 -4 189 -8 414 -11 713 -9 892 -7 963 12 14 3 36 8 50 10
41 7 54 10 68 18 6 5 12 6 12 3 0 -3 11 -1 25 4 14 5 36 12 48 14 12 2 45 13
73 24 29 12 55 18 58 15 3 -4 6 -1 6 5 0 7 4 12 10 12 5 0 35 12 67 27 32 15
61 26 66 25 4 -1 7 3 7 9 0 5 5 7 10 4 6 -3 10 -1 10 4 0 6 5 11 11 11 6 0 30
14 54 30 24 17 48 30 54 30 6 0 11 3 11 8 0 4 21 20 48 37 26 16 53 35 60 42
7 7 17 13 22 13 5 0 15 6 22 13 7 7 39 30 71 51 31 21 57 42 57 48 0 5 4 7 9
4 5 -4 11 -2 13 3 1 5 10 11 18 13 20 4 39 21 33 31 -2 4 1 7 8 7 13 0 82 44
107 67 7 7 17 13 22 13 5 0 15 6 23 14 8 8 27 23 43 33 16 10 54 36 84 58 30
22 58 39 62 38 5 -2 8 1 8 6 0 4 18 20 40 35 22 14 40 23 40 20 0 -4 9 5 21
20 11 14 25 24 30 21 5 -4 9 -1 9 4 0 6 7 11 15 11 8 0 15 3 15 8 0 4 27 25
60 46 33 22 60 44 60 48 0 5 5 6 10 3 6 -3 10 -1 10 4 0 6 6 11 13 11 10 0 28
13 84 60 7 5 16 10 21 10 5 0 17 9 27 20 10 11 22 17 26 14 5 -3 9 -1 9 4 0 6
27 27 60 48 33 22 60 42 60 47 0 4 6 7 13 7 7 0 24 11 39 24 14 14 28 23 30
21 2 -2 21 11 43 30 21 19 43 35 47 35 8 0 72 44 88 60 3 3 12 10 21 15 52 32
175 120 177 127 2 4 8 8 14 8 5 0 16 7 25 15 8 8 20 12 26 8 7 -3 9 -3 5 1 -8
9 87 76 107 76 8 0 17 -5 20 -10 4 -6 10 -8 15 -5 4 3 13 -1 19 -8 5 -7 41
-28 78 -47 37 -19 70 -37 73 -40 3 -4 34 -22 70 -41 36 -19 67 -36 70 -39 5
-5 49 -29 122 -67 15 -8 30 -19 33 -24 4 -5 11 -7 16 -4 5 4 9 2 9 -3 0 -4 27
-21 60 -37 33 -16 60 -33 60 -39 0 -5 3 -6 7 -3 3 4 13 1 22 -7 9 -8 23 -16
31 -18 8 -2 17 -6 20 -9 8 -10 131 -79 139 -79 5 0 14 -7 21 -15 6 -8 15 -14
18 -13 4 1 26 -10 49 -25 24 -15 50 -27 58 -27 9 0 13 -4 10 -10 -3 -5 -2 -10
4 -10 15 0 51 -17 96 -45 22 -14 59 -35 83 -47 23 -12 42 -26 42 -31 0 -4 5
-5 10 -2 6 3 10 1 10 -4 0 -6 7 -11 15 -11 8 0 15 -4 15 -10 0 -5 7 -10 15
-10 8 0 15 -3 15 -7 0 -5 17 -19 38 -33 20 -14 47 -34 59 -45 41 -37 51 -44
57 -38 3 4 6 -1 6 -10 0 -10 15 -26 33 -37 17 -11 29 -20 25 -20 -5 0 10 -18
32 -40 22 -22 40 -42 40 -45 0 -5 13 -21 55 -68 13 -14 20 -28 17 -31 -3 -3 0
-6 6 -6 7 0 12 -7 12 -15 0 -8 3 -15 8 -15 4 0 18 -20 32 -45 14 -25 28 -45
32 -45 5 0 8 -8 8 -19 0 -10 7 -24 15 -31 8 -7 15 -21 15 -31 0 -11 5 -19 11
-19 5 0 7 -4 4 -10 -3 -5 -1 -10 4 -10 6 0 11 -4 11 -9 0 -5 17 -45 37 -88 20
-43 37 -80 38 -83 4 -17 31 -66 38 -71 5 -3 8 -10 7 -15 -2 -15 53 -134 62
-134 4 0 5 -7 2 -15 -4 -8 -1 -15 6 -15 6 0 9 -4 6 -9 -3 -5 1 -14 9 -21 8 -7
12 -16 9 -21 -3 -5 2 -16 10 -25 9 -8 16 -24 16 -34 0 -10 3 -20 8 -22 8 -4
74 -148 75 -165 0 -7 3 -13 7 -13 4 0 20 -31 35 -70 15 -38 33 -70 38 -70 6 0
7 -3 4 -6 -4 -4 2 -23 13 -43 24 -44 44 -93 42 -103 -1 -5 3 -8 9 -8 5 0 8 -4
5 -9 -3 -5 1 -14 9 -21 8 -7 15 -19 15 -26 0 -8 4 -22 10 -32 8 -15 102 -207
101 -207 0 0 2 -10 5 -22 4 -13 11 -23 17 -23 6 0 7 -3 4 -6 -4 -4 0 -19 8
-33 25 -45 115 -242 115 -252 0 -5 4 -9 8 -9 5 0 9 -6 9 -12 0 -7 15 -44 34
-83 18 -38 34 -72 34 -75 0 -3 23 -50 49 -105 27 -55 49 -106 49 -112 0 -7 4
-13 9 -13 5 0 7 -4 4 -9 -3 -5 1 -14 9 -21 8 -7 15 -18 15 -24 0 -7 10 -32 22
-57 12 -24 23 -46 23 -49 1 -3 15 -32 30 -65 16 -33 28 -63 27 -67 -1 -5 2 -8
8 -8 5 0 10 -7 10 -15 0 -8 4 -15 9 -15 13 0 10 41 -3 59 -9 12 -8 13 3 6 10
-6 12 -4 5 6 -4 7 -9 30 -10 49 -1 19 -3 35 -4 35 -1 0 -3 25 -5 55 -6 108
-19 225 -25 225 0 0 -2 29 -4 65 -1 37 -6 71 -10 78 -4 7 -2 12 4 12 6 0 8 5
3 13 -4 6 -8 19 -10 27 -5 37 -16 160 -17 202 0 27 -3 48 -6 48 -3 0 -6 15 -7
33 0 17 -4 64 -8 102 -3 39 -8 90 -10 115 -2 25 -4 45 -5 45 -1 0 -3 18 -4 40
-1 22 -4 45 -7 50 -3 6 -5 34 -5 63 1 28 -1 52 -4 52 -3 0 -6 17 -7 38 -1 20
-5 66 -9 102 -4 36 -7 89 -8 117 -1 29 -3 53 -6 53 -3 0 -6 19 -7 43 -2 53 -5
70 -18 79 -6 5 -5 8 3 8 7 0 10 5 6 11 -3 6 -8 43 -10 82 -6 100 -9 131 -15
142 -3 6 -5 27 -5 48 1 20 -1 37 -4 37 -3 0 -5 24 -4 53 1 28 -2 57 -5 62 -3
6 -6 26 -7 45 -2 31 -9 106 -19 220 -2 19 -4 35 -5 35 -3 0 -21 199 -23 263
-1 17 -4 32 -8 32 -4 0 -6 8 -5 17 5 34 -37 205 -56 228 -4 5 -8 19 -8 32 0
13 -4 23 -9 23 -7 0 -17 22 -20 45 0 3 -16 30 -36 60 -19 31 -35 58 -35 61 0
3 -6 11 -12 18 -7 7 -24 28 -38 46 -39 52 -137 149 -144 143 -3 -4 -6 1 -6 10
0 9 -4 17 -8 17 -5 0 -17 8 -28 18 -25 23 -151 102 -163 102 -4 0 -14 7 -21
15 -7 8 -19 15 -27 15 -8 0 -35 9 -60 21 -25 11 -57 23 -71 25 -14 3 -29 7
-34 10 -9 6 -12 6 -103 26 -33 7 -63 16 -66 21 -3 5 -10 8 -15 7 -5 -1 -36 4
-69 11 -33 7 -64 14 -70 15 -5 1 -12 3 -15 4 -10 3 -45 11 -57 12 -7 1 -13 4
-13 8 0 3 -8 6 -17 6 -20 1 -37 5 -148 34 -44 11 -91 23 -105 26 -14 3 -47 12
-75 20 -27 8 -51 14 -52 14 -2 0 -4 0 -5 1 -2 0 -14 2 -27 5 -13 2 -60 14
-105 26 -45 11 -88 22 -96 23 -29 4 -75 16 -90 24 -8 4 -24 7 -35 6 -11 0 -23
4 -26 8 -3 5 -22 9 -42 10 -20 1 -37 5 -37 8 0 3 -6 6 -12 7 -7 0 -23 3 -35 6
-13 3 -32 8 -44 11 -11 2 -29 7 -39 10 -23 7 -59 16 -85 20 -11 2 -21 4 -22 5
-2 2 -6 3 -10 4 -25 6 -71 17 -88 21 -11 2 -40 10 -63 18 l-44 13 36 25 c20
13 36 27 36 32 0 4 5 7 11 7 6 0 16 6 23 13 8 6 24 19 36 27 12 8 34 25 48 37
15 13 30 23 33 23 3 0 15 8 27 18 11 10 31 26 44 35 104 76 129 94 149 107 12
8 31 23 41 33 10 9 23 17 28 17 6 0 10 5 10 10 0 6 4 10 10 10 10 0 44 26 82
63 10 9 21 17 26 17 4 0 14 6 22 13 8 7 31 23 50 37 19 13 37 27 40 30 3 4 32
25 66 47 33 23 71 51 85 62 13 11 49 38 79 60 30 22 61 45 68 51 6 6 12 8 12
5 0 -3 13 8 29 24 16 16 32 27 35 24 3 -4 6 0 6 7 0 7 3 10 6 7 4 -4 15 3 25
15 11 11 19 17 19 13 0 -5 8 0 18 11 10 11 48 40 85 64 36 25 67 51 67 58 0 7
4 11 9 8 8 -6 59 28 73 49 4 5 8 7 8 3 0 -5 8 -1 18 8 45 40 88 74 94 74 7 0
15 6 76 57 15 13 30 23 35 23 4 0 7 4 7 10 0 5 14 23 30 40 17 17 30 35 30 40
0 5 6 15 13 22 29 30 69 127 84 203 15 80 4 244 -21 310 -29 76 -42 104 -63
132 -13 17 -23 35 -23 38 0 10 -110 116 -144 140 -16 11 -33 19 -38 18 -4 -2
-8 1 -8 6 0 5 -13 12 -30 16 -16 4 -30 10 -30 14 0 6 -63 26 -117 36 -10 2
-18 4 -18 6 0 1 -18 3 -40 5 -22 1 -51 5 -65 8 -25 5 -90 14 -145 20 -16 2
-30 5 -30 6 0 1 -20 4 -45 6 -25 2 -56 7 -70 10 -14 4 -43 8 -65 9 -22 2 -53
6 -70 9 -75 14 -112 19 -142 20 -18 0 -33 3 -33 6 0 4 -19 7 -42 7 -24 1 -45
2 -48 4 -6 2 -8 3 -80 14 -30 4 -68 9 -85 11 -97 11 -131 17 -136 26 -4 7 -9
6 -13 -1 -4 -6 -11 -9 -15 -7 -8 6 -59 15 -106 21 -36 4 -122 16 -150 20 -11
2 -40 6 -65 10 -25 5 -62 8 -82 9 -21 1 -38 5 -38 9 0 5 -3 6 -7 4 -5 -3 -33
-1 -63 4 -80 13 -119 18 -170 25 -25 3 -58 8 -75 11 -16 2 -45 5 -62 6 -18 1
-33 4 -33 7 0 3 -17 6 -37 7 -21 1 -51 4 -68 8 -28 6 -80 13 -150 20 -16 2
-30 4 -30 5 0 3 -31 8 -100 15 -38 4 -73 9 -77 11 -4 3 -27 7 -50 9 -41 3 -60
6 -153 21 -22 3 -56 7 -75 9 -19 2 -35 4 -35 5 0 1 -16 4 -35 6 -19 2 -48 6
-65 9 -16 3 -50 7 -75 10 -25 2 -46 5 -47 6 -6 4 -25 7 -54 8 -21 1 -28 5 -23
14 5 9 4 9 -5 1 -8 -8 -27 -8 -59 -2 -26 5 -65 11 -87 13 -22 2 -56 7 -75 10
-19 2 -48 7 -65 9 -16 2 -30 5 -30 6 0 1 -22 4 -120 14 -16 2 -30 5 -30 6 0 1
-22 3 -50 6 -27 2 -57 7 -65 10 -8 4 -31 8 -50 10 -64 5 -112 12 -224 30 -16
3 -34 8 -39 11 -6 4 -7 1 -2 -6 6 -10 3 -11 -12 -3 -10 6 -41 13 -69 16 -27 3
-69 8 -94 11 -25 4 -58 8 -75 10 -16 2 -30 4 -30 5 0 1 -14 3 -31 5 -16 2 -48
6 -70 10 -21 4 -53 8 -71 8 -17 1 -30 4 -27 8 2 3 -11 6 -29 7 -30 1 -31 0
-13 -14z"/>
<path d="M9088 8454 c-2 -1 -30 -5 -63 -8 -87 -8 -139 -17 -150 -25 -5 -4 -20
-6 -32 -5 -13 0 -23 -3 -23 -8 0 -5 -4 -7 -8 -4 -5 3 -32 -3 -59 -14 -28 -10
-53 -16 -57 -13 -3 4 -6 1 -6 -6 0 -8 -8 -11 -19 -8 -12 3 -22 -1 -25 -9 -3
-8 -9 -13 -13 -12 -10 2 -63 -19 -83 -32 -8 -6 -26 -15 -38 -20 -27 -12 -159
-96 -182 -116 -55 -48 -171 -164 -164 -164 5 0 4 -4 -2 -8 -14 -10 -77 -102
-69 -102 4 0 -1 -7 -9 -16 -9 -8 -16 -24 -16 -35 0 -10 -5 -19 -12 -19 -6 0
-9 -3 -5 -6 3 -3 1 -18 -4 -33 -24 -62 -28 -153 -9 -239 7 -34 17 -62 22 -62
5 0 7 -4 3 -9 -3 -5 1 -16 9 -23 7 -8 21 -28 30 -45 9 -18 24 -37 33 -42 10
-6 14 -11 10 -11 -26 -1 183 -143 221 -151 4 -1 18 -6 32 -12 24 -9 44 -14 85
-19 11 -2 23 -7 26 -12 4 -4 28 -10 55 -11 110 -7 124 -9 124 -18 0 -4 5 -5
10 -2 17 10 110 12 110 2 0 -5 6 -5 13 1 7 7 30 10 50 9 20 -2 37 -1 37 2 0 3
21 7 47 9 26 1 50 7 54 13 5 8 8 8 13 0 5 -8 13 -8 27 0 12 6 33 13 47 15 15
3 28 9 30 13 1 4 16 6 32 5 17 -1 30 1 30 5 0 4 21 13 46 20 25 8 65 23 88 34
22 12 43 21 46 22 15 2 130 71 130 78 0 4 4 6 9 2 5 -3 17 5 26 17 8 13 18 21
20 18 8 -7 175 140 175 154 0 4 11 17 25 30 14 13 25 28 25 35 0 6 4 11 10 11
5 0 12 11 16 25 3 14 11 22 17 18 6 -4 8 0 4 10 -3 10 -2 17 3 17 6 0 10 7 10
15 0 8 5 15 11 15 6 0 9 7 5 15 -3 8 -1 15 4 15 5 0 12 20 16 45 3 25 10 45
14 45 5 0 8 43 8 95 0 55 -4 95 -9 95 -6 0 -8 4 -5 8 6 11 -45 121 -70 152
-36 43 -85 90 -94 90 -6 0 -10 4 -10 8 0 5 -12 15 -27 23 -16 8 -30 16 -33 19
-22 22 -168 78 -225 87 -16 2 -37 7 -45 10 -8 4 -28 8 -45 9 -51 4 -245 11
-247 8z"/>
<path d="M115 3670 c-3 -6 1 -7 9 -4 18 7 21 14 7 14 -6 0 -13 -4 -16 -10z"/>
</g>
</svg>
